# xmcd
#
# Track frame offsets:
#   150
#   27058
#   61523
#   81904
#   102896
#   126333
#   151887
#   170079
#   187724
#   221586
#   252226
#   275451
#
# Disc length: 4537 seconds
#
# Revision: 0
# Processed by: cddbd v1.5PL3 Copyright (c) Steve Scherf et al.
# Submitted via: uFREEDB 1.6.0
#
DISCID=9811b70c
DTITLE=Scott Henderson - Tore Down House
DYEAR=1996
DGENRE=Blues
TTITLE0=Dolemite
TTITLE1=Tore Down House
TTITLE2=Meter Maid
TTITLE3=I Hate You
TTITLE4=Gittar School
TTITLE5=Xanax
TTITLE6=Continuum
TTITLE7=You Get Off On Me
TTITLE8=Mocha
TTITLE9=Harpoon
TTITLE10=Same As You
TTITLE11=Bonus
EXTD=
EXTT0=
EXTT1=
EXTT2=
EXTT3=
EXTT4=
EXTT5=
EXTT6=
EXTT7=
EXTT8=
EXTT9=
EXTT10=
EXTT11=
PLAYORDER=
